<svg id="Capa_1" enable-background="new 0 0 512 512" height="512" viewBox="0 0 512 512" width="512" xmlns="http://www.w3.org/2000/svg"><g><circle cx="256" cy="256" fill="#dd7f66" r="256"/><path d="m256 481.9c-124.76 0-225.9-101.14-225.9-225.9 0-120.694 94.655-219.282 213.78-225.58 6.577-.348 12.12 4.842 12.12 11.427v214.153l25.05 112.95z" fill="#b3dafe"/><path d="m256.2 480.99-.2.91c-124.76 0-225.9-101.14-225.9-225.9 0-120.69 94.65-219.28 213.78-225.58 2.13-.11 4.16.36 5.92 1.27-112.1 13.28-199.03 108.64-199.03 224.31 0 117.86 90.26 214.64 205.43 224.99z" fill="#8ac9fe"/><path d="m495.203 230.95h-202.709c-6.32 0-11.444-5.124-11.444-11.444v-202.709c0-6.586 5.544-11.775 12.12-11.427 115.112 6.086 207.374 98.348 213.46 213.46.348 6.576-4.841 12.12-11.427 12.12z" fill="#ffc344"/><path d="m318.8 230.946h-26.31c-6.32 0-11.44-5.12-11.44-11.44v-202.71c0-6.59 5.54-11.78 12.12-11.43 6.53.35 12.99.97 19.36 1.86-3.11 2.04-5.18 5.54-5.18 9.57v202.71c0 6.32 5.13 11.44 11.45 11.44z" fill="#f6ab31"/><path d="m415.74 415.74c-40.88 40.88-97.36 66.16-159.74 66.16v-225.9l76.068 45.698z" fill="#4f66d0"/><path d="m218.395 218.746-56.062-54.469c-3.763-3.656-9.753-3.656-13.516 0l-56.062 54.469c-6.245 6.068-1.95 16.654 6.758 16.654h7.526v76.667c0 3.38 2.74 6.12 6.12 6.12h84.83c3.38 0 6.12-2.74 6.12-6.12v-76.667h7.529c8.707 0 13.003-10.586 6.757-16.654zm-37.596 71.171c0 3.62-2.93 6.55-6.55 6.55h-37.35c-3.61 0-6.54-2.93-6.54-6.55v-37.34c0-3.62 2.93-6.55 6.54-6.55h37.35c3.62 0 6.55 2.93 6.55 6.55z" fill="#eaf1f4"/><g fill="#4f66d0"><path d="m373.843 109.67c0 15.36-7.43 28.5-17.95 33.85v54.1c0 5.82-4.71 10.53-10.53 10.53s-10.53-4.71-10.53-10.53v-54.1c-10.52-5.35-17.95-18.49-17.95-33.85 0-20.11 12.75-36.42 28.48-36.42s28.48 16.31 28.48 36.42z"/><path d="m422.328 90.31v55.56c0 7.51-5.73 13.69-13.07 14.38v37.37c0 5.82-4.71 10.53-10.53 10.53-5.81 0-10.53-4.71-10.53-10.53v-113.42c0-4.6 3.73-8.33 8.33-8.33h11.36c7.98 0 14.44 6.46 14.44 14.44z"/></g><g><path d="m348.558 368.149-15.546 9.994c-6.163-3.738-13.394-5.89-21.129-5.89s-14.965 2.153-21.129 5.89l-15.546-9.994c-3.725-2.394-8.503.84-7.665 5.187l5.338 27.694c-1.171 3.803-1.804 7.841-1.804 12.029 0 22.537 18.27 40.806 40.806 40.806 22.537 0 40.806-18.27 40.806-40.806 0-4.187-.633-8.226-1.805-12.029l5.338-27.694c.839-4.348-3.94-7.582-7.664-5.187z" fill="#ffc344"/><circle cx="311.883" cy="427.922" fill="#4f66d0" r="17.223"/><g fill="#4f66d0"><circle cx="298.793" cy="403.861" r="5.647"/><circle cx="324.973" cy="403.861" r="5.647"/></g><g fill="#ffc344"><circle cx="305.264" cy="427.922" r="3.544"/><circle cx="318.502" cy="427.922" r="3.544"/></g></g><g><circle cx="88.584" cy="88.588" fill="#ffc344" r="88.584"/><path d="m95.796 176.876c-2.384.195-4.784.292-7.216.292-48.924 0-88.58-39.656-88.58-88.58s39.656-88.588 88.58-88.588c2.432 0 4.833.097 7.216.292-45.551 3.665-81.38 41.797-81.38 88.296s35.829 84.623 81.38 88.288z" fill="#f6ab31"/><circle cx="88.584" cy="88.588" fill="#f6ab31" r="65.922"/><path d="m98.503 79.609c-6.029-2.131-12.676-4.689-16.263-7.504-.379-.297-.79-1.519-.474-3.201.155-.821.867-3.564 3.539-4.369 6.144-1.851 10.055 1.205 10.482 1.559 3.872 3.222 9.622 2.694 12.844-1.178 3.221-3.872 2.694-9.622-1.178-12.844-2.559-2.129-6.05-4.062-10.17-5.226v-1.019c0-5.037-4.083-9.12-9.12-9.12s-9.12 4.083-9.12 9.12v1.584c-7.812 2.757-13.596 9.599-15.201 18.115-1.553 8.238 1.184 16.258 7.141 20.931 5.649 4.43 13.644 7.592 21.442 10.349 4.867 1.72 5.361 5.219 4.919 7.851-.631 3.757-3.794 7.818-9.243 7.854-6.263.041-7.894-.214-12.526-3.244-4.215-2.757-9.867-1.576-12.625 2.639s-1.576 9.867 2.639 12.625c5.062 3.311 9.052 4.921 13.455 5.658v1.158c0 5.037 4.083 9.12 9.12 9.12s9.12-4.083 9.12-9.12v-2.134c10.096-3.527 16.545-12.587 18.048-21.531 2.098-12.491-4.664-23.773-16.829-28.073z" fill="#eaf1f4"/></g><path d="m481.58 268.12c-3.042 57.556-27.625 109.404-65.84 147.62l-159.74-159.74h214.153c6.586 0 11.775 5.544 11.427 12.12z" fill="#eaf1f4"/><path d="m438.006 297.927h-11.015l-3.584-18.826c-1.11-5.832-6.209-10.051-12.145-10.051h-28.838c-5.936 0-11.035 4.219-12.145 10.051l-3.584 18.826h-11.015c-6.238 0-11.295 5.057-11.295 11.295v16.642c0 4.383 3.553 7.935 7.935 7.935h4.311c0 7.799 6.322 14.121 14.121 14.121s14.121-6.322 14.121-14.121h23.941c0 7.799 6.322 14.121 14.121 14.121s14.121-6.322 14.121-14.121h4.311c4.383 0 7.935-3.553 7.935-7.935v-16.642c-.001-6.238-5.058-11.295-11.296-11.295z" fill="#fea3ce"/></g></svg>